<?xml version="1.0" standalone="no"?>
<!DOCTYPE svg PUBLIC "-//W3C//DTD SVG 20010904//EN"
 "http://www.w3.org/TR/2001/REC-SVG-20010904/DTD/svg10.dtd">
<svg version="1.0" xmlns="http://www.w3.org/2000/svg"
 width="32.000000pt" height="32.000000pt" viewBox="0 0 32.000000 32.000000"
 preserveAspectRatio="xMidYMid meet">

<g transform="translate(0.000000,32.000000) scale(0.100000,-0.100000)"
fill="#000000" stroke="none">
<path d="M113 309 c-44 -13 -90 -62 -103 -110 -30 -112 77 -220 188 -190 47
13 99 66 113 114 21 76 -31 165 -109 187 -43 11 -46 11 -89 -1z m-8 -79 c0 -8
-8 -16 -17 -18 -13 -2 -18 3 -18 18 0 15 5 20 18 18 9 -2 17 -10 17 -18z m5
-100 c0 -53 -2 -60 -20 -60 -18 0 -20 7 -20 60 0 53 2 60 20 60 18 0 20 -7 20
-60z m138 -2 c3 -53 1 -58 -18 -58 -17 0 -20 6 -20 46 0 38 -3 45 -17 42 -13
-2 -19 -15 -21 -46 -3 -34 -7 -42 -23 -42 -17 0 -19 7 -19 59 l0 60 58 -2 57
-2 3 -57z"/>
</g>
</svg>
