<?xml version="1.0" standalone="no"?>
<!DOCTYPE svg PUBLIC "-//W3C//DTD SVG 20010904//EN"
 "http://www.w3.org/TR/2001/REC-SVG-20010904/DTD/svg10.dtd">
<svg version="1.0" xmlns="http://www.w3.org/2000/svg"
 width="32.000000pt" height="32.000000pt" viewBox="0 0 32.000000 32.000000"
 preserveAspectRatio="xMidYMid meet">

<g transform="translate(0.000000,32.000000) scale(0.100000,-0.100000)"
fill="#000000" stroke="none">
<path d="M113 309 c-44 -13 -90 -62 -103 -110 -30 -112 77 -220 188 -190 47
13 99 66 113 114 21 76 -31 165 -109 187 -43 11 -46 11 -89 -1z m143 -86 c-1
-7 -5 -16 -9 -19 -4 -4 -7 -18 -7 -32 0 -14 -14 -38 -34 -58 -30 -30 -40 -34
-85 -34 -52 0 -68 13 -29 24 22 5 22 6 3 20 -11 9 -15 16 -10 16 6 0 4 4 -3 9
-12 7 -28 81 -17 81 2 0 19 -9 37 -20 38 -23 58 -25 58 -7 0 7 5 18 12 25 16
16 86 11 84 -5z"/>
</g>
</svg>
